<svg width="24" height="24" viewBox="0 0 24 24" fill="none" xmlns="http://www.w3.org/2000/svg">
<path d="M7.8 2.40002C7.32261 2.40002 6.86477 2.58967 6.52721 2.92723C6.18964 3.2648 6 3.72263 6 4.20002V19.8C6 20.2774 6.18964 20.7352 6.52721 21.0728C6.86477 21.4104 7.32261 21.6 7.8 21.6H16.2C16.6774 21.6 17.1352 21.4104 17.4728 21.0728C17.8104 20.7352 18 20.2774 18 19.8V4.20002C18 3.72263 17.8104 3.2648 17.4728 2.92723C17.1352 2.58967 16.6774 2.40002 16.2 2.40002H7.8ZM10.8 16.8H13.2C13.3591 16.8 13.5117 16.8632 13.6243 16.9758C13.7368 17.0883 13.8 17.2409 13.8 17.4C13.8 17.5592 13.7368 17.7118 13.6243 17.8243C13.5117 17.9368 13.3591 18 13.2 18H10.8C10.6409 18 10.4883 17.9368 10.3757 17.8243C10.2632 17.7118 10.2 17.5592 10.2 17.4C10.2 17.2409 10.2632 17.0883 10.3757 16.9758C10.4883 16.8632 10.6409 16.8 10.8 16.8Z" fill="white"/>
</svg>
